<svg width="165" height="165" viewBox="0 0 165 165" fill="none" xmlns="http://www.w3.org/2000/svg">
<g clip-path="url(#clip0_218_3)">
<path d="M155.873 53.2697C168.031 41.1248 168.031 21.4342 155.873 9.28935C143.715 -2.85548 124.002 -2.85548 111.844 9.28935L9.11299 111.906C-3.04534 124.051 -3.04533 143.742 9.11299 155.886C21.2713 168.031 40.9838 168.031 53.1422 155.886L155.873 53.2697Z" fill="url(#paint0_linear_218_3)"/>
<path d="M0.866699 0C0.866699 8.24791 4.14681 16.158 9.98544 21.9902C15.8241 27.8223 23.743 31.0988 32 31.0988C36.0885 31.0988 40.137 30.2944 43.9142 28.7315C47.6915 27.1687 51.1236 24.8779 54.0146 21.9902C56.9056 19.1024 59.1989 15.6741 60.7635 11.901C62.3281 8.12791 63.1334 4.08395 63.1334 0L0.866699 0Z" fill="url(#paint1_linear_218_3)"/>
<path d="M164.133 164.484C164.133 156.236 160.853 148.326 155.015 142.494C149.176 136.662 141.257 133.385 133 133.385C124.743 133.385 116.824 136.662 110.985 142.494C105.147 148.326 101.867 156.236 101.867 164.484H164.133Z" fill="url(#paint2_linear_218_3)"/>
</g>
<defs>
<linearGradient id="paint0_linear_218_3" x1="16.7246" y1="82.5928" x2="131.508" y2="82.5928" gradientUnits="userSpaceOnUse">
<stop stop-color="#4F17D8"/>
<stop offset="0.02" stop-color="#4E19D9"/>
<stop offset="0.16" stop-color="#4E1BD9"/>
<stop offset="0.25" stop-color="#423BE1"/>
<stop offset="0.36" stop-color="#3758E8"/>
<stop offset="0.46" stop-color="#2F6EEE"/>
<stop offset="0.58" stop-color="#297EF2"/>
<stop offset="0.72" stop-color="#2587F4"/>
<stop offset="0.91" stop-color="#248AF5"/>
</linearGradient>
<linearGradient id="paint1_linear_218_3" x1="0.866699" y1="15.5494" x2="63.1334" y2="15.5494" gradientUnits="userSpaceOnUse">
<stop stop-color="#4E1BD9"/>
<stop offset="0.11" stop-color="#423BE1"/>
<stop offset="0.23" stop-color="#3758E8"/>
<stop offset="0.37" stop-color="#2F6EEE"/>
<stop offset="0.51" stop-color="#297EF2"/>
<stop offset="0.68" stop-color="#2587F4"/>
<stop offset="0.91" stop-color="#248AF5"/>
</linearGradient>
<linearGradient id="paint2_linear_218_3" x1="101.867" y1="148.935" x2="164.133" y2="148.935" gradientUnits="userSpaceOnUse">
<stop stop-color="#4E1BD9"/>
<stop offset="0.11" stop-color="#423BE1"/>
<stop offset="0.23" stop-color="#3758E8"/>
<stop offset="0.37" stop-color="#2F6EEE"/>
<stop offset="0.51" stop-color="#297EF2"/>
<stop offset="0.68" stop-color="#2587F4"/>
<stop offset="0.91" stop-color="#248AF5"/>
</linearGradient>
<clipPath id="clip0_218_3">
<rect width="165" height="165" fill="white"/>
</clipPath>
</defs>
</svg>
